<?xml version="1.0" encoding="utf-8"?>
<!-- Generator: Adobe Illustrator 19.2.0, SVG Export Plug-In . SVG Version: 6.00 Build 0)  -->
<svg version="1.1" id="Layer_1" xmlns="http://www.w3.org/2000/svg" xmlns:xlink="http://www.w3.org/1999/xlink" x="0px" y="0px"
	 viewBox="0 0 113.5 36.8" style="enable-background:new 0 0 113.5 36.8;" xml:space="preserve">
<style type="text/css">
	.st0{fill:none;}
	.st1{fill:#FFFFFF;}
</style>
<g id="Layer_3">
</g>
<g id="Layer_2">
</g>
<g id="Reversed">
	<path class="st0" d="M13,15.4c-0.4,0-1.4,0-2.8,0c-3.6,0.1-9.4,0.2-9.4,0.2l0,4.7l0,0.1c0.1,1,0.6,3.1,2.2,5.3
		c0.1,0.1,0.1,0.2,0.2,0.3c0,0,1.2,1.3,2.9,2.7c0.9,0.7,2.7,1.9,3.5,2.5c0.3,0.2,0.5,0.3,0.5,0.3c1.6,0.9,2.6,1.4,2.9,1.5
		c0.3-0.1,1.3-0.6,2.9-1.6c0,0,0.2-0.1,0.4-0.3c0.7-0.5,2.2-1.5,3.5-2.5c1.9-1.3,3-2.7,3-2.7c0.1-0.1,0.2-0.2,0.2-0.3
		c1.7-2.2,2.1-4.2,2.2-5.3l0-0.1l0-4.7c0,0-5.7-0.1-9.4-0.2C14.5,15.5,13.4,15.4,13,15.4z"/>
	<path class="st0" d="M25.4,15.1L25.3,2c0-0.1-0.1-0.4-0.5-0.5c0,0-2.6-0.3-11.6-0.3h-0.1C4.9,1.2,2,1.4,1.4,1.5
		C1.1,1.6,0.9,1.8,0.9,2c0,0,0,7.8-0.1,13C2,15,5.4,14.9,13.2,14.9C20.8,14.9,24.2,15,25.4,15.1z"/>
	<path class="st0" d="M24.8,19.8c-0.1,0.3-0.4,0.6-0.8,0.6c-0.3,0-0.6-0.2-0.7-0.6c-0.1,0.3-0.4,0.6-0.7,0.6c-0.3,0-0.6-0.2-0.7-0.6
		c-0.1,0.3-0.4,0.6-0.7,0.6c-0.3,0-0.6-0.2-0.7-0.6c-0.1,0.3-0.4,0.6-0.7,0.6c-0.3,0-0.6-0.2-0.7-0.6c-0.1,0.3-0.4,0.6-0.7,0.6
		c-0.3,0-0.6-0.2-0.7-0.6c-0.1,0.3-0.4,0.6-0.7,0.6c-0.4,0-0.8-0.4-0.8-0.8c0-0.3,0.2-0.6,0.6-0.7c-0.3-0.1-0.6-0.4-0.6-0.7
		c0-0.3,0.2-0.6,0.6-0.7c-0.3-0.1-0.6-0.4-0.6-0.7c0-0.3,0.2-0.6,0.6-0.7c-0.2-0.1-0.4-0.2-0.5-0.4l0-0.1c-1.4,0-2.5,0-2.9,0
		c-0.4,0-1.4,0-2.8,0c-3.6,0.1-9.4,0.2-9.4,0.2l0,4.7l0,0.1c0.1,1,0.6,3.1,2.2,5.3c0.1,0.1,0.1,0.2,0.2,0.3c0,0,1.2,1.3,2.9,2.7
		c0.9,0.7,2.7,1.9,3.5,2.5c0.3,0.2,0.5,0.3,0.5,0.3c1.6,0.9,2.6,1.4,2.9,1.5c0.3-0.1,1.3-0.6,2.9-1.6c0,0,0.2-0.1,0.4-0.3
		c0.7-0.5,2.2-1.5,3.5-2.5c1.9-1.3,3-2.7,3-2.7c0.1-0.1,0.2-0.2,0.2-0.3c1.7-2.2,2.1-4.2,2.2-5.3l0,0C25.1,20.4,24.9,20.1,24.8,19.8
		z"/>
	<path class="st0" d="M25.4,15.1L25.3,2c0-0.1-0.1-0.4-0.5-0.5c0,0-2.6-0.3-11.6-0.3h-0.1C4.9,1.2,2,1.4,1.4,1.5
		C1.1,1.6,0.9,1.8,0.9,2c0,0,0,7.8-0.1,13C2,15,5.4,14.9,13.2,14.9C20.8,14.9,24.2,15,25.4,15.1z"/>
	<path class="st0" d="M15.9,15.5c-1.4,0-2.5,0-2.8,0c-0.4,0-1.4,0-2.7,0l0,0.1c-0.1,0.2-0.3,0.3-0.5,0.4c0.3,0.1,0.6,0.4,0.6,0.7
		c0,0.3-0.2,0.6-0.6,0.7c0.3,0.1,0.6,0.4,0.6,0.7c0,0.3-0.2,0.6-0.6,0.7c0.3,0.1,0.6,0.4,0.6,0.7c0,0.4-0.4,0.8-0.8,0.8
		c-0.3,0-0.6-0.2-0.7-0.6c-0.1,0.3-0.4,0.6-0.7,0.6c-0.3,0-0.6-0.2-0.7-0.6c-0.1,0.3-0.4,0.6-0.7,0.6c-0.3,0-0.6-0.2-0.7-0.6
		c-0.1,0.3-0.4,0.6-0.7,0.6c-0.3,0-0.6-0.2-0.7-0.6c-0.1,0.3-0.4,0.6-0.7,0.6c-0.3,0-0.6-0.2-0.7-0.6c-0.1,0.3-0.4,0.6-0.7,0.6
		c-0.4,0-0.6-0.2-0.8-0.6c-0.1,0.3-0.3,0.5-0.6,0.6l0,0v0c0.1,1,0.6,3.1,2.2,5.2c0.1-0.2,0.4-0.4,0.7-0.4c0.3,0,0.6,0.2,0.7,0.6
		c0.1-0.3,0.4-0.6,0.7-0.6c0.3,0,0.6,0.2,0.7,0.6c0.1-0.3,0.4-0.6,0.7-0.6c0.3,0,0.6,0.2,0.7,0.6c0.1-0.3,0.4-0.6,0.7-0.6
		c0.3,0,0.6,0.2,0.7,0.6c0.1-0.3,0.4-0.6,0.7-0.6c0.4,0,0.8,0.4,0.8,0.8c0,0.3-0.2,0.6-0.6,0.7c0.3,0.1,0.6,0.4,0.6,0.7
		c0,0.3-0.2,0.6-0.6,0.7c0.3,0.1,0.6,0.4,0.6,0.7c0,0.3-0.2,0.6-0.6,0.7c0.3,0.1,0.6,0.4,0.6,0.7c0,0.3-0.2,0.6-0.5,0.7
		c0.2,0.1,0.3,0.2,0.3,0.2c1.6,0.9,2.6,1.4,2.9,1.5c0.3-0.1,1.3-0.6,2.9-1.6c0,0,0.1-0.1,0.3-0.2c-0.3-0.1-0.5-0.4-0.5-0.7
		c0-0.3,0.2-0.6,0.6-0.7c-0.3-0.1-0.6-0.4-0.6-0.7c0-0.3,0.2-0.6,0.6-0.7c-0.3-0.1-0.6-0.4-0.6-0.7c0-0.3,0.2-0.6,0.6-0.7
		c-0.3-0.1-0.6-0.4-0.6-0.7c0-0.4,0.4-0.8,0.8-0.8c0.3,0,0.6,0.2,0.7,0.6c0.1-0.3,0.4-0.6,0.7-0.6c0.3,0,0.6,0.2,0.7,0.6
		c0.1-0.3,0.4-0.6,0.7-0.6c0.3,0,0.6,0.2,0.7,0.6c0.1-0.3,0.4-0.6,0.7-0.6c0.3,0,0.6,0.2,0.7,0.6c0.1-0.3,0.4-0.6,0.7-0.6
		c0.3,0,0.5,0.2,0.7,0.4c1.6-2.2,2.1-4.2,2.2-5.2c0,0,0,0,0,0l0-0.1l0-4.7c0,0-5.7-0.1-9.4-0.2C15.9,15.5,15.9,15.5,15.9,15.5z"/>
	<path class="st0" d="M25.3,2c0-0.1-0.1-0.4-0.5-0.5c0,0-2.6-0.3-11.6-0.3h-0.1C4.9,1.2,2,1.4,1.4,1.5C1.1,1.6,0.9,1.8,0.9,2
		c0,0,0,7.8-0.1,13C2,15,5.4,14.9,13.2,14.9c7.6,0,11,0.1,12.2,0.2L25.3,2z"/>
	<path class="st0" d="M3.7,20.4c0.4,0,0.6-0.2,0.7-0.6c0.1,0.3,0.4,0.6,0.7,0.6c0.4,0,0.6-0.2,0.7-0.6c0.1,0.3,0.4,0.6,0.7,0.6
		c0.4,0,0.6-0.2,0.7-0.6c0.1,0.3,0.4,0.6,0.7,0.6c0.4,0,0.6-0.2,0.7-0.6c0.1,0.3,0.4,0.6,0.7,0.6c0.4,0,0.8-0.4,0.8-0.8
		c0-0.4-0.2-0.6-0.6-0.7c0.3-0.1,0.6-0.4,0.6-0.7c0-0.4-0.2-0.6-0.6-0.7c0.3-0.1,0.6-0.4,0.6-0.7c0-0.4-0.2-0.7-0.6-0.7
		c0.2-0.1,0.4-0.2,0.5-0.4l0-0.1c0,0-0.1,0-0.1,0c-3.6,0.1-9.4,0.2-9.4,0.2l0,4.7l0,0.1l0,0c0.3-0.1,0.5-0.3,0.6-0.6
		c0.1,0.4,0.4,0.6,0.8,0.6c0.4,0,0.6-0.2,0.7-0.6C3,20.2,3.3,20.4,3.7,20.4z"/>
	<path class="st0" d="M22.5,25.2c-0.4,0-0.6,0.2-0.7,0.6c-0.1-0.3-0.4-0.6-0.7-0.6c-0.4,0-0.6,0.2-0.7,0.6c-0.1-0.3-0.4-0.6-0.7-0.6
		c-0.4,0-0.6,0.2-0.7,0.6c-0.1-0.3-0.4-0.6-0.7-0.6c-0.4,0-0.6,0.2-0.7,0.6c-0.1-0.3-0.4-0.6-0.7-0.6c-0.4,0-0.8,0.4-0.8,0.8
		c0,0.4,0.2,0.6,0.6,0.7c-0.3,0.1-0.6,0.4-0.6,0.7c0,0.4,0.2,0.6,0.6,0.7c-0.3,0.1-0.6,0.4-0.6,0.7c0,0.4,0.2,0.6,0.6,0.7
		c-0.3,0.1-0.6,0.4-0.6,0.7c0,0.3,0.2,0.6,0.5,0.7c0,0,0.1-0.1,0.1-0.1c0.7-0.5,2.2-1.5,3.5-2.5c1.9-1.3,3-2.7,3-2.7
		c0.1-0.1,0.2-0.2,0.2-0.3c0,0,0,0,0-0.1C23.1,25.4,22.8,25.2,22.5,25.2z"/>
	<path class="st0" d="M10.4,26c0-0.4-0.4-0.8-0.8-0.8c-0.4,0-0.6,0.2-0.7,0.6c-0.1-0.3-0.4-0.6-0.7-0.6c-0.4,0-0.6,0.2-0.7,0.6
		c-0.1-0.3-0.4-0.6-0.7-0.6c-0.4,0-0.6,0.2-0.7,0.6c-0.1-0.3-0.4-0.6-0.7-0.6c-0.4,0-0.6,0.2-0.7,0.6c-0.1-0.3-0.4-0.6-0.7-0.6
		c-0.3,0-0.5,0.2-0.7,0.4c0,0,0,0,0,0.1c0.1,0.1,0.1,0.2,0.2,0.3c0,0,1.2,1.3,2.9,2.7c0.9,0.7,2.7,1.9,3.5,2.5c0,0,0.1,0.1,0.1,0.1
		c0.3-0.1,0.5-0.4,0.5-0.7c0-0.4-0.2-0.6-0.6-0.7c0.3-0.1,0.6-0.4,0.6-0.7c0-0.4-0.2-0.6-0.6-0.7c0.3-0.1,0.6-0.4,0.6-0.7
		c0-0.4-0.2-0.6-0.6-0.7C10.2,26.7,10.4,26.4,10.4,26z"/>
	<path class="st0" d="M25.4,15.1L25.3,2c0-0.1-0.1-0.4-0.5-0.5c0,0-2.6-0.3-11.6-0.3h-0.1C4.9,1.2,2,1.4,1.4,1.5
		C1.1,1.6,0.9,1.8,0.9,2c0,0,0,7.8-0.1,13C2,15,5.4,14.9,13.2,14.9C20.8,14.9,24.2,15,25.4,15.1z"/>
	<path class="st0" d="M15.9,15.5L15.9,15.5c0.1,0.3,0.3,0.4,0.5,0.4c-0.3,0.1-0.6,0.4-0.6,0.7c0,0.4,0.2,0.6,0.6,0.7
		c-0.3,0.1-0.6,0.4-0.6,0.7c0,0.4,0.2,0.6,0.6,0.7c-0.3,0.1-0.6,0.4-0.6,0.7c0,0.4,0.4,0.8,0.8,0.8c0.4,0,0.6-0.2,0.7-0.6
		c0.1,0.3,0.4,0.6,0.7,0.6c0.4,0,0.6-0.2,0.7-0.6c0.1,0.3,0.4,0.6,0.7,0.6c0.4,0,0.6-0.2,0.7-0.6c0.1,0.3,0.4,0.6,0.7,0.6
		c0.4,0,0.6-0.2,0.7-0.6c0.1,0.3,0.4,0.6,0.7,0.6c0.4,0,0.6-0.2,0.7-0.6c0.1,0.3,0.4,0.6,0.7,0.6c0.4,0,0.7-0.3,0.8-0.6
		c0.1,0.3,0.3,0.5,0.6,0.6l0,0c0,0,0,0,0,0l0-0.1l0-4.7c0,0-5.7-0.1-9.4-0.2C15.9,15.5,15.9,15.5,15.9,15.5z"/>
	<path class="st0" d="M3.7,20.4c0.4,0,0.6-0.2,0.7-0.6c0.1,0.3,0.4,0.6,0.7,0.6c0.4,0,0.6-0.2,0.7-0.6c0.1,0.3,0.4,0.6,0.7,0.6
		c0.4,0,0.6-0.2,0.7-0.6c0.1,0.3,0.4,0.6,0.7,0.6c0.4,0,0.6-0.2,0.7-0.6c0.1,0.3,0.4,0.6,0.7,0.6c0.4,0,0.8-0.4,0.8-0.8
		c0-0.4-0.2-0.6-0.6-0.7c0.3-0.1,0.6-0.4,0.6-0.7c0-0.4-0.2-0.6-0.6-0.7c0.3-0.1,0.6-0.4,0.6-0.7c0-0.4-0.2-0.7-0.6-0.7
		c0.2-0.1,0.4-0.2,0.5-0.4l0-0.1c0,0-0.1,0-0.1,0c-3.6,0.1-9.4,0.2-9.4,0.2l0,4.7l0,0.1l0,0c0.3-0.1,0.5-0.3,0.6-0.6
		c0.1,0.4,0.4,0.6,0.8,0.6c0.4,0,0.6-0.2,0.7-0.6C3,20.2,3.3,20.4,3.7,20.4z"/>
	<path class="st0" d="M9.1,20.9c0,0.1,0.8,0.5,1,1c0.1-0.2,0.2-0.3,0.4-0.4c0.1,0,0.1-0.1,0.2-0.1c-0.1-0.1-0.1-0.1-0.1-0.2
		c-0.1-0.1-0.1-0.3-0.1-0.4c0-0.1,0-0.1,0-0.2C10.1,20.9,9.1,20.8,9.1,20.9z"/>
	<path class="st0" d="M15.5,21.4c0.1,0,0.2,0,0.2,0.1c0.2,0.1,0.3,0.2,0.4,0.4c0.2-0.5,1-1,1-1c0-0.1-0.9,0.1-1.4-0.2
		c0,0.1,0,0.1,0,0.2c0,0.1,0,0.3-0.1,0.4C15.6,21.3,15.5,21.4,15.5,21.4z"/>
	<path class="st0" d="M25.4,15.1L25.3,2c0-0.1-0.1-0.4-0.5-0.5c0,0-2.6-0.3-11.6-0.3h-0.1C4.9,1.2,2,1.4,1.4,1.5
		C1.1,1.6,0.9,1.8,0.9,2c0,0,0,7.8-0.1,13C2,15,5.4,14.9,13.2,14.9C20.8,14.9,24.2,15,25.4,15.1z"/>
	<path class="st0" d="M10.4,26c0-0.4-0.4-0.8-0.8-0.8c-0.4,0-0.6,0.2-0.7,0.6c-0.1-0.3-0.4-0.6-0.7-0.6c-0.4,0-0.6,0.2-0.7,0.6
		c-0.1-0.3-0.4-0.6-0.7-0.6c-0.4,0-0.6,0.2-0.7,0.6c-0.1-0.3-0.4-0.6-0.7-0.6c-0.4,0-0.6,0.2-0.7,0.6c-0.1-0.3-0.4-0.6-0.7-0.6
		c-0.3,0-0.5,0.2-0.7,0.4c0,0,0,0,0,0.1c0.1,0.1,0.1,0.2,0.2,0.3c0,0,1.2,1.3,2.9,2.7c0.9,0.7,2.7,1.9,3.5,2.5c0,0,0.1,0.1,0.1,0.1
		c0.3-0.1,0.5-0.4,0.5-0.7c0-0.4-0.2-0.6-0.6-0.7c0.3-0.1,0.6-0.4,0.6-0.7c0-0.4-0.2-0.6-0.6-0.7c0.3-0.1,0.6-0.4,0.6-0.7
		c0-0.4-0.2-0.6-0.6-0.7C10.2,26.7,10.4,26.4,10.4,26z"/>
	<path class="st0" d="M13.1,18c-0.1,0-0.2,0.9-0.7,1.3c0.2,0,0.4,0.1,0.5,0.2c0,0,0.1,0.1,0.1,0.2c0-0.1,0.1-0.1,0.1-0.2
		c0.1-0.1,0.3-0.2,0.5-0.2C13.4,18.9,13.2,18,13.1,18z"/>
	<path class="st0" d="M22.5,25.2c-0.4,0-0.6,0.2-0.7,0.6c-0.1-0.3-0.4-0.6-0.7-0.6c-0.4,0-0.6,0.2-0.7,0.6c-0.1-0.3-0.4-0.6-0.7-0.6
		c-0.4,0-0.6,0.2-0.7,0.6c-0.1-0.3-0.4-0.6-0.7-0.6c-0.4,0-0.6,0.2-0.7,0.6c-0.1-0.3-0.4-0.6-0.7-0.6c-0.4,0-0.8,0.4-0.8,0.8
		c0,0.4,0.2,0.6,0.6,0.7c-0.3,0.1-0.6,0.4-0.6,0.7c0,0.4,0.2,0.6,0.6,0.7c-0.3,0.1-0.6,0.4-0.6,0.7c0,0.4,0.2,0.6,0.6,0.7
		c-0.3,0.1-0.6,0.4-0.6,0.7c0,0.3,0.2,0.6,0.5,0.7c0,0,0.1-0.1,0.1-0.1c0.7-0.5,2.2-1.5,3.5-2.5c1.9-1.3,3-2.7,3-2.7
		c0.1-0.1,0.2-0.2,0.2-0.3c0,0,0,0,0-0.1C23.1,25.4,22.8,25.2,22.5,25.2z"/>
	<path class="st0" d="M15.4,24.2c-0.2,0.1-0.4,0.1-0.6,0.1c-0.1,0-0.1,0-0.2-0.1c0,0,0,0.1,0,0.1c0,0.1,0,0.1,0,0.1
		c0,0.2-0.1,0.4-0.3,0.5c0.5,0,1.2,0.7,1.3,0.6C15.6,25.5,15.2,24.7,15.4,24.2z"/>
	<path class="st0" d="M15.9,15.5L15.9,15.5c0.1,0.3,0.3,0.4,0.5,0.4c-0.3,0.1-0.6,0.4-0.6,0.7c0,0.4,0.2,0.6,0.6,0.7
		c-0.3,0.1-0.6,0.4-0.6,0.7c0,0.4,0.2,0.6,0.6,0.7c-0.3,0.1-0.6,0.4-0.6,0.7c0,0.4,0.4,0.8,0.8,0.8c0.4,0,0.6-0.2,0.7-0.6
		c0.1,0.3,0.4,0.6,0.7,0.6c0.4,0,0.6-0.2,0.7-0.6c0.1,0.3,0.4,0.6,0.7,0.6c0.4,0,0.6-0.2,0.7-0.6c0.1,0.3,0.4,0.6,0.7,0.6
		c0.4,0,0.6-0.2,0.7-0.6c0.1,0.3,0.4,0.6,0.7,0.6c0.4,0,0.6-0.2,0.7-0.6c0.1,0.3,0.4,0.6,0.7,0.6c0.4,0,0.7-0.3,0.8-0.6
		c0.1,0.3,0.3,0.5,0.6,0.6l0,0c0,0,0,0,0,0l0-0.1l0-4.7c0,0-5.7-0.1-9.4-0.2C15.9,15.5,15.9,15.5,15.9,15.5z"/>
	<path class="st0" d="M11.6,24.3C11.6,24.3,11.6,24.2,11.6,24.3c-0.1-0.1-0.2,0-0.2,0c-0.2,0-0.4,0-0.6-0.1c0.1,0.5-0.2,1.4-0.2,1.4
		c0,0,0.7-0.6,1.3-0.6c-0.1-0.1-0.2-0.3-0.3-0.5C11.6,24.4,11.6,24.3,11.6,24.3z"/>
	<path class="st1" d="M26.2,19.7L26.1,1.9c0-0.5-0.5-1.1-1.1-1.1c-0.1,0-2.8-0.3-11.8-0.3H13C4.8,0.4,1.8,0.6,1.2,0.7
		C0.7,0.8,0.1,1.3,0.1,1.9C0.1,2,0,19.7,0,19.7c0,0.1-0.1,1.2,0.4,2.8c0.5,1.8,1.7,4.1,4.5,6.3c4.6,3.6,7.9,5.1,8.1,5.1
		c0.1,0,0.1,0,0.2,0s0.1,0,0.2,0c0.1-0.1,3.4-1.5,8-5.1c2.8-2.2,4-4.5,4.5-6.2C26.3,20.9,26.2,19.8,26.2,19.7z M0.9,2
		c0-0.3,0.2-0.5,0.5-0.5C2,1.4,4.9,1.2,13.1,1.2h0.1c9,0,11.6,0.3,11.6,0.3c0.4,0.1,0.5,0.4,0.5,0.5l0.1,13.1
		c-1.2-0.1-4.6-0.2-12.2-0.2C5.4,14.9,2,15,0.8,15.1C0.9,9.8,0.9,2,0.9,2z M15.7,20.7c0.5,0.3,1.4,0.2,1.4,0.2c0,0.1-0.8,0.5-1,1
		c-0.1-0.2-0.2-0.3-0.4-0.4c-0.1,0-0.1-0.1-0.2-0.1c0.1-0.1,0.1-0.1,0.1-0.2c0.1-0.1,0.1-0.3,0.1-0.4C15.7,20.8,15.7,20.7,15.7,20.7
		z M13.8,19.3c-0.2,0-0.4,0.1-0.5,0.2c-0.1,0-0.1,0.1-0.1,0.2c0-0.1-0.1-0.1-0.1-0.2c-0.1-0.1-0.3-0.2-0.5-0.2
		c0.4-0.3,0.6-1.3,0.7-1.3C13.2,18,13.4,18.9,13.8,19.3z M10.6,21.2c0,0.1,0.1,0.1,0.1,0.2c-0.1,0-0.2,0-0.2,0.1
		c-0.2,0.1-0.3,0.2-0.4,0.4c-0.2-0.5-1-1-1-1c0-0.1,1,0,1.4-0.2c0,0.1,0,0.1,0,0.2C10.5,21,10.5,21.1,10.6,21.2z M2.2,20.4
		c-0.4,0-0.6-0.2-0.8-0.6c-0.1,0.3-0.3,0.5-0.6,0.6l0,0l0-0.1l0-4.7c0,0,5.8-0.1,9.4-0.2c0,0,0.1,0,0.1,0l0,0.1
		c-0.1,0.2-0.3,0.3-0.5,0.4c0.3,0.1,0.6,0.4,0.6,0.7c0,0.3-0.2,0.6-0.6,0.7c0.3,0.1,0.6,0.4,0.6,0.7c0,0.3-0.2,0.6-0.6,0.7
		c0.3,0.1,0.6,0.4,0.6,0.7c0,0.4-0.4,0.8-0.8,0.8c-0.3,0-0.6-0.2-0.7-0.6c-0.1,0.3-0.4,0.6-0.7,0.6c-0.3,0-0.6-0.2-0.7-0.6
		c-0.1,0.3-0.4,0.6-0.7,0.6c-0.3,0-0.6-0.2-0.7-0.6c-0.1,0.3-0.4,0.6-0.7,0.6c-0.3,0-0.6-0.2-0.7-0.6c-0.1,0.3-0.4,0.6-0.7,0.6
		c-0.3,0-0.6-0.2-0.7-0.6C2.8,20.2,2.5,20.4,2.2,20.4z M10.4,27.5c0,0.3-0.2,0.6-0.6,0.7c0.3,0.1,0.6,0.4,0.6,0.7
		c0,0.3-0.2,0.6-0.6,0.7c0.3,0.1,0.6,0.4,0.6,0.7c0,0.3-0.2,0.6-0.5,0.7c0,0-0.1-0.1-0.1-0.1c-0.9-0.6-2.7-1.8-3.5-2.5
		C4.4,27.3,3.3,26,3.3,26c-0.1-0.1-0.2-0.2-0.2-0.3c0,0,0,0,0-0.1c0.1-0.2,0.4-0.4,0.7-0.4c0.3,0,0.6,0.2,0.7,0.6
		c0.1-0.3,0.4-0.6,0.7-0.6c0.3,0,0.6,0.2,0.7,0.6c0.1-0.3,0.4-0.6,0.7-0.6c0.3,0,0.6,0.2,0.7,0.6c0.1-0.3,0.4-0.6,0.7-0.6
		c0.3,0,0.6,0.2,0.7,0.6c0.1-0.3,0.4-0.6,0.7-0.6c0.4,0,0.8,0.4,0.8,0.8c0,0.3-0.2,0.6-0.6,0.7C10.2,26.9,10.4,27.2,10.4,27.5z
		 M10.7,25.6c0,0,0.3-0.9,0.2-1.4c0.2,0.1,0.4,0.1,0.6,0.1c0.1,0,0.1,0,0.2-0.1c0,0,0,0.1,0,0.1c0,0.1,0,0.1,0,0.1
		c0,0.2,0.1,0.4,0.3,0.5C11.4,25,10.7,25.6,10.7,25.6z M13.1,25.1c-0.5,0-1.1-0.2-1.2-0.7c0-0.1,0-0.4,0.1-0.5l0.2-0.2l0.2-0.2
		l0.1-0.1c0.1-0.1,0.2-0.2,0.2-0.4c0,0,0-0.1-0.1-0.1c-0.1-0.1-0.1,0-0.1,0c-0.1,0-0.2,0.2-0.3,0.3l-0.1,0.1L12,23.5l-0.2,0.3
		c-0.1,0.1-0.3,0.2-0.4,0.2c-0.5,0.1-0.9-0.4-1-0.9c-0.2-0.5-0.1-1.1,0.3-1.3c0.1-0.1,0.4-0.1,0.5-0.1l0.3,0.1l0.2,0.1l0.1,0
		c0.1,0.1,0.3,0.1,0.4,0.1c0,0,0.1,0,0.1-0.1c0-0.1,0-0.1,0-0.1c-0.1-0.1-0.2-0.1-0.4-0.2l-0.1,0l-0.2-0.1l-0.3-0.1
		c-0.1,0-0.3-0.2-0.3-0.3c-0.2-0.4,0.1-0.9,0.6-1.3c0.4-0.3,1-0.4,1.4-0.1c0.1,0.1,0.2,0.3,0.2,0.4l0,0.3l0,0.2l0,0.1
		c0,0.1,0,0.3,0,0.4c0,0,0,0,0.1,0c0.1,0,0.1,0,0.1,0c0.1-0.1,0.1-0.3,0-0.4l0-0.1l0-0.2l0-0.3c0-0.1,0.1-0.3,0.2-0.4
		c0.3-0.3,0.9-0.2,1.4,0.1l0,0c0.4,0.3,0.7,0.8,0.5,1.3c-0.1,0.1-0.2,0.3-0.3,0.3l-0.3,0.1l-0.2,0.1l-0.1,0c-0.1,0-0.3,0.1-0.4,0.2
		c0,0,0,0.1,0,0.1c0,0.1,0.1,0.1,0.1,0.1c0.1,0,0.3,0,0.4-0.1l0.1,0l0.2-0.1l0.3-0.1c0.1,0,0.3,0,0.5,0.1c0.4,0.2,0.5,0.8,0.3,1.3
		c-0.2,0.5-0.6,1-1,0.9c-0.1,0-0.4-0.1-0.4-0.2l-0.2-0.3l-0.1-0.2l-0.1-0.1c-0.1-0.1-0.2-0.3-0.3-0.3c0,0-0.1,0-0.1,0
		c-0.1,0-0.1,0.1-0.1,0.1c0,0.1,0.1,0.3,0.2,0.4l0.1,0.1l0.2,0.2l0.2,0.2c0.1,0.1,0.1,0.3,0.1,0.5C14.2,24.8,13.6,25.1,13.1,25.1z
		 M14.3,24.9c0.1-0.1,0.2-0.3,0.3-0.5c0,0,0-0.1,0-0.1c0,0,0-0.1,0-0.1c0.1,0,0.2,0.1,0.2,0.1c0.2,0,0.4,0,0.6-0.1
		c-0.1,0.5,0.3,1.4,0.2,1.4C15.5,25.6,14.8,25,14.3,24.9z M23.2,25.7c-0.1,0.1-0.2,0.2-0.2,0.3c0,0-1.1,1.3-3,2.7
		c-1.4,1-2.8,2-3.5,2.5c0,0-0.1,0.1-0.1,0.1c-0.3-0.1-0.5-0.4-0.5-0.7c0-0.3,0.2-0.6,0.6-0.7c-0.3-0.1-0.6-0.4-0.6-0.7
		c0-0.3,0.2-0.6,0.6-0.7c-0.3-0.1-0.6-0.4-0.6-0.7c0-0.3,0.2-0.6,0.6-0.7c-0.3-0.1-0.6-0.4-0.6-0.7c0-0.4,0.4-0.8,0.8-0.8
		c0.3,0,0.6,0.2,0.7,0.6c0.1-0.3,0.4-0.6,0.7-0.6c0.3,0,0.6,0.2,0.7,0.6c0.1-0.3,0.4-0.6,0.7-0.6c0.3,0,0.6,0.2,0.7,0.6
		c0.1-0.3,0.4-0.6,0.7-0.6c0.3,0,0.6,0.2,0.7,0.6c0.1-0.3,0.4-0.6,0.7-0.6C22.8,25.3,23.1,25.4,23.2,25.7
		C23.2,25.7,23.2,25.7,23.2,25.7z M25.4,20.3l0,0.1c0,0,0,0,0,0l0,0c-0.3-0.1-0.5-0.3-0.6-0.6c-0.1,0.3-0.4,0.6-0.8,0.6
		c-0.3,0-0.6-0.2-0.7-0.6c-0.1,0.3-0.4,0.6-0.7,0.6c-0.3,0-0.6-0.2-0.7-0.6c-0.1,0.3-0.4,0.6-0.7,0.6c-0.3,0-0.6-0.2-0.7-0.6
		c-0.1,0.3-0.4,0.6-0.7,0.6c-0.3,0-0.6-0.2-0.7-0.6c-0.1,0.3-0.4,0.6-0.7,0.6c-0.3,0-0.6-0.2-0.7-0.6c-0.1,0.3-0.4,0.6-0.7,0.6
		c-0.4,0-0.8-0.4-0.8-0.8c0-0.3,0.2-0.6,0.6-0.7c-0.3-0.1-0.6-0.4-0.6-0.7c0-0.3,0.2-0.6,0.6-0.7c-0.3-0.1-0.6-0.4-0.6-0.7
		c0-0.3,0.2-0.6,0.6-0.7c-0.2-0.1-0.4-0.2-0.5-0.4l0-0.1c0,0,0.1,0,0.1,0c3.7,0.1,9.4,0.2,9.4,0.2L25.4,20.3z"/>
	<path class="st1" d="M37.2,10.2c-1.1,0-1.8-0.4-2.1-1.3c-0.1-0.3-0.1-0.7-0.1-1.3c0,0,0-6.4,0-6.5c-0.2,0-1.8,0-1.9,0
		c0,0.2,0,5.8,0,5.8c0,1.3,0.1,2.4,0.5,3.1c0.6,1,1.8,1.5,3.5,1.5c1.7,0,2.9-0.6,3.5-1.7c0.3-0.5,0.4-1.2,0.4-3c0,0,0-5.4,0-5.6
		c-0.2,0-1.4,0-1.6,0c0,0.2,0,6.4,0,6.4c0,0.5,0,1-0.1,1.3C39.1,9.7,38.4,10.2,37.2,10.2z"/>
	<path class="st1" d="M53.1,3.9c-0.2,0-1.7,0-1.9,0c0,0.2,0,7.2,0,7.3c0.2,0,1.7,0,1.9,0c0-0.1,0-3.6,0-3.6S53.1,3.9,53.1,3.9z"/>
	<path class="st1" d="M74.1,5.3c0.1-0.2,0.3-1.3,0.4-1.4c-0.2-0.1-0.5-0.2-0.9-0.2c-1.2,0-1.7,1-1.7,1l-0.2,0c0,0,0-0.7,0-0.9
		c-0.2,0-1.7,0-1.8,0c0,0.2,0,7.2,0,7.3c0.2,0,1.7,0,1.9,0c0-0.2,0-5.9,0-5.9l0,0c0,0,0.4-0.3,1.2-0.3C73.6,5,74,5.2,74.1,5.3z"/>
	<path class="st1" d="M65.4,3.7c-3.2,0-3.5,2.7-3.5,3.8c0,2.5,1.3,3.8,3.8,3.8c1.4,0,2.2-0.3,2.5-0.4c0-0.1-0.3-0.8-0.3-1
		c-0.2,0.1-0.7,0.3-1.6,0.3c-1.5,0-2.5-1-2.5-2.5V7.6c0,0,4.5,0,4.7,0c0,0,0,0,0,0c0-0.8-0.1-1.8-0.4-2.5
		C67.5,4.1,66.7,3.7,65.4,3.7z M66.6,6.7h-2.8V6.6c0-0.1,0-0.5,0.1-0.9c0.2-0.8,0.6-1.2,1.3-1.2c0.9,0,1.4,0.6,1.4,1.8L66.6,6.7
		L66.6,6.7z"/>
	<path class="st1" d="M58,9.6l-0.1,0.3l-0.3-1.2c0,0-1.4-4.7-1.4-4.8c-0.1,0-1.8,0-2,0c0.1,0.2,2.5,7.2,2.6,7.4c0.1,0,1.8,0,1.9,0
		c0-0.1,2.6-7.1,2.7-7.4c-0.2,0-1.5,0-1.6,0c-0.2,0.6-1.4,4.8-1.4,4.8L58,9.6z"/>
	<path class="st1" d="M52.2,0.6c-0.7,0-1.1,0.4-1.1,1c0,0.6,0.4,1,1.1,1c0.7,0,1.1-0.4,1.1-1C53.3,1,52.8,0.6,52.2,0.6z"/>
	<path class="st1" d="M47,3.7c-1.5,0-2.2,0.8-2.2,0.8l-0.2,0.2c0,0,0-0.8,0-0.9c-0.2,0-1.7,0-1.8,0c0,0.2,0,7.2,0,7.3
		c0.2,0,1.7,0,1.9,0c0-0.2,0-6.1,0-6.1l0,0c0,0,0.5-0.3,1.2-0.3c0.8,0,1.4,0.4,1.5,1.1c0.1,0.3,0.1,0.7,0.1,1.1c0,0,0,4,0,4.2
		c0.2,0,1.7,0,1.9,0c0-0.2,0-4.4,0-4.4c0-0.3,0-0.9-0.1-1.4C49.1,4.8,48.7,3.7,47,3.7z"/>
	<path class="st1" d="M83.5,3.9c-0.2,0-1.7,0-1.9,0c0,0.2,0,7.2,0,7.3c0.2,0,1.7,0,1.9,0c0-0.1,0-4,0-4S83.5,3.9,83.5,3.9z"/>
	<path class="st1" d="M82.6,0.6c-0.7,0-1.1,0.4-1.1,1c0,0.6,0.4,1,1.1,1c0.7,0,1.1-0.4,1.1-1C83.7,1,83.3,0.6,82.6,0.6z"/>
	<path class="st1" d="M78.8,7.1l-1.1-0.5c-0.6-0.3-0.9-0.5-0.9-1c0-0.4,0.2-0.8,1.3-0.8c0.8,0,1.4,0.3,1.6,0.4
		c0.1-0.2,0.3-0.9,0.3-1C79.8,4,79,3.7,77.7,3.7c-1.7,0-2.6,0.7-2.6,2.1c0,1.1,0.5,1.6,1.5,2.1c0,0,1.1,0.6,1.1,0.6
		c0.5,0.3,0.8,0.4,0.8,0.9c0,0.4-0.2,0.9-1.3,0.9c-1,0-1.6-0.3-1.9-0.4c-0.1,0.2-0.3,0.9-0.3,1c0.2,0.1,0.9,0.4,2.4,0.4
		c1,0,2.8-0.3,2.8-2.3C80.1,8.1,79.7,7.6,78.8,7.1z"/>
	<path class="st1" d="M88.9,10.2c-1.1,0-1.1-0.7-1.1-1.5v-4c0,0,2.1,0,2.2,0c0-0.1,0-0.8,0-0.9c-0.2,0-2.2,0-2.2,0s0-1.6,0-1.8
		c-0.1,0-1,0-1.2,0c0,0,0,0.1,0,0.1C86.4,3,85.8,3.7,85,4C85,4,85,4,84.9,4c0,0.1,0,0.6,0,0.8c0.2,0,0.9,0,0.9,0v3.8
		c0,0.7,0,1.2,0.1,1.5c0.3,0.8,0.9,1.2,2.2,1.2c0.9,0,1.5-0.2,1.8-0.3c0-0.1-0.2-0.8-0.3-0.9C89.5,10.1,89.2,10.2,88.9,10.2z"/>
	<path class="st1" d="M94.5,9.6l-0.1,0.3l-0.3-1.3c0,0-1.4-4.7-1.5-4.8c-0.1,0-1.8,0-2,0c0.1,0.2,3,7.8,3,7.8l-0.3,0.7
		c-0.2,0.7-0.5,1.1-1.3,1.1c-0.3,0-0.6-0.1-0.8-0.1c0,0.2-0.2,0.9-0.2,1c0.1,0,0.5,0.2,1.2,0.2c1.2,0,1.9-0.5,2.4-1.9
		c0,0,3-8.5,3.1-8.7c-0.2,0-1.5,0-1.6,0c0,0.1-1.4,4.8-1.4,4.8L94.5,9.6z"/>
	<path class="st1" d="M104.4,3.7c-2.3,0-3.7,1.5-3.7,4c0,2.4,1.3,3.7,3.6,3.7c2.3,0,3.7-1.5,3.7-4C107.9,5,106.6,3.7,104.4,3.7z
		 M104.3,10.3c-1.5,0-1.7-1.5-1.7-2.8c0-2,0.5-2.8,1.7-2.8c1.5,0,1.7,1.5,1.7,2.8C105.9,8.9,105.8,10.3,104.3,10.3z"/>
	<path class="st1" d="M109.6,11.2c0.2,0,1.7,0,1.8,0c0-0.2,0-6.4,0-6.4s1.4,0,1.5,0c0-0.1,0-0.8,0-0.9c-0.2,0-1.5,0-1.5,0V2.7
		c0-0.5,0-0.9,0.2-1.2c0.2-0.3,0.5-0.5,1-0.5c0.3,0,0.6,0.1,0.7,0.2c0-0.2,0.3-0.8,0.3-0.9c-0.2-0.1-0.6-0.2-1.4-0.2
		c-1.3,0-2.1,0.5-2.4,1.5c-0.1,0.4-0.1,1.2-0.1,1.6c0,0,0,0.7,0,0.7h-0.1c0,0-0.7,0-0.8,0c0,0.1,0,0.8,0,0.9c0.2,0,0.9,0,0.9,0
		S109.6,11,109.6,11.2z"/>
	<path class="st1" d="M85.1,15.2c-1.2,0-1.9,0.6-1.9,1.7c0,1,0.7,1.6,1.8,1.6c1.2,0,1.9-0.6,1.9-1.7C87,15.9,86.3,15.2,85.1,15.2z"
		/>
	<path class="st1" d="M51.2,20.2c-5,0-5.5,4.1-5.5,5.9c0,4.8,3.2,5.8,6,5.8c2.3,0,3.6-0.4,4-0.6c0-0.1-0.5-1.4-0.5-1.5
		c-0.4,0.2-1.2,0.4-2.4,0.4c-2.6,0-3.8-1.7-3.8-3.4v-0.4c0,0,7,0,7.2,0c0-1.3-0.1-2.9-0.7-4C54.7,20.8,53.4,20.2,51.2,20.2z
		 M53,24.9H49v-0.2c0-0.3,0-0.8,0.1-1.4c0.2-1.3,0.9-1.9,2-1.9c1.4,0,2,0.8,2,2.6V24.9z"/>
	<path class="st1" d="M40.6,24.8L40.6,24.8c0.1,0,3.2-0.9,3.2-4.5c0-2.9-2.5-3.8-3.2-3.9c-0.9-0.2-2.3-0.3-4.2-0.3
		c-1.5,0-2.8,0.1-3.3,0.1c0,0.2,0,15.4,0,15.6c0.2,0,2.9,0,3.1,0c0-0.2,0-6.4,0-6.4h1.1c0,0,4.4,6.3,4.5,6.4c0.1,0,3.4,0,3.7,0
		c-0.2-0.3-5.2-6.8-5.2-6.8L40.6,24.8z M38.7,23.8c-0.4,0.1-0.6,0.1-1.4,0.1l-1.2,0v-6.3l0.1,0c0,0,0.1,0,0.1,0c0,0,0.3,0,1,0
		c2.1,0,3.2,1,3.2,3.2C40.5,22.7,39.6,23.6,38.7,23.8z"/>
	<path class="st1" d="M62.9,20.1c-2.2,0-3.6,0.4-4.1,0.6c0.1,0.1,0.5,1.4,0.6,1.6c0.4-0.2,1.3-0.5,2.6-0.5c0.7,0,1.7,0.1,2.1,1
		c0.1,0.3,0.2,0.7,0.2,1.3v0.7l0,0.2l-1.8-0.1c-1.3,0-2.6,0.1-3.6,0.8c-0.8,0.6-1.2,1.5-1.2,2.7c0,2,1.3,3.3,3.5,3.3
		c2,0,2.8-1.1,2.8-1.1l0.4-0.6c0,0,0,1.4,0,1.5c0.2,0,2.8,0,3,0c0-0.2,0-6.9,0-6.9c0-1,0-1.9-0.3-2.6C66.5,20.8,65.2,20.1,62.9,20.1
		z M64.3,29.9c0,0-0.5,0.4-1.4,0.4c-0.8,0-2.1-0.3-2.1-1.9c0-0.3,0.1-1.1,0.5-1.5c0.4-0.4,1-0.6,1.8-0.6l1,0l0.2,0V29.9z"/>
	<path class="st1" d="M86.7,20.4c-0.2,0-3.1,0-3.2,0c0,0.2,0,11.1,0,11.3c0.2,0,3.1,0,3.2,0c0-0.1,0-7.2,0-7.2S86.7,20.5,86.7,20.4z
		"/>
	<path class="st1" d="M77,20.7c0,0-0.7-0.5-2.3-0.5c-3.1,0-5.2,2.4-5.2,6c0,3.5,1.7,5.6,4.5,5.6c2.2,0,3-1.2,3-1.3l0.4-0.7
		c0,0,0,1.6,0,1.7c0.2,0,2.9,0,3.1,0c0-0.2,0-17,0-17.2c-0.2,0-3.1,0-3.2,0c0,0.2,0,6,0,6v0.5l-0.1-0.1C77.2,20.8,77,20.7,77,20.7z
		 M77.4,21.9v7.7l-0.1,0.1c0,0-0.6,0.3-1.5,0.3c-1.8,0-2.9-1.4-2.9-4c0-2.9,1.1-4.3,3.3-4.3c0.6,0,1,0.1,1.1,0.2L77.4,21.9z"/>
	<path class="st1" d="M96.4,20.1c-2.4,0-3.3,1.3-3.3,1.4l-0.3,0.3l-0.2,0.3c0,0,0-1.5,0-1.7c-0.2,0-2.9,0-3.1,0c0,0.2,0,11.1,0,11.3
		c0.2,0,3.1,0,3.2,0c0-0.2,0-9.2,0-9.2l0.1-0.1c0,0,0.7-0.3,1.6-0.3c1.2,0,1.9,0.5,2.1,1.5c0.1,0.4,0.1,1.1,0.1,1.4c0,0,0,6.5,0,6.7
		c0.2,0,3.1,0,3.3,0c0-0.2,0-6.9,0-6.9c0-0.5,0-1.4-0.2-2.2C99.7,21.8,99.1,20.1,96.4,20.1z"/>
	<path class="st1" d="M106.8,20.2c-3.3,0-4.8,1.9-4.8,3.8c0,2.9,2.5,3.3,2.6,3.3l0.8,0.1l-0.8,0.3c-0.1,0-1.7,0.7-1.7,2.3
		c0,1.1,0.8,1.5,0.8,1.5l0.8,0.4l-0.9,0.1c-0.1,0-2.3,0.3-2.3,2.2c0,2.3,2.9,2.6,4.7,2.6c1.4,0,2.6-0.2,3.6-0.5c2.9-1,3.3-2.9,3.3-4
		c0-2.4-1.9-2.8-3.6-2.8l-1.6,0c0,0-0.9,0-0.9,0c-0.5,0-1.4,0-1.4-1.1c0-0.6,0.4-0.9,0.4-0.9l0.1-0.1l1.1,0.1c2.9,0,4.6-1.3,4.6-3.5
		c0-1.1-0.6-1.7-0.6-1.8l-0.4-0.4c0,0,2.3,0,2.5,0c0-0.2,0-1.3,0-1.5c-0.6,0-4.4,0-4.5,0C108.4,20.3,107.7,20.2,106.8,20.2z
		 M107.8,31.9c1.1,0,1.9,0,2.3,0.4c0.2,0.2,0.3,0.5,0.3,0.8c0,0.9-0.6,2.1-3.4,2.1c-1.3,0-2.9-0.2-2.9-1.8c0-1.1,1-1.5,1.1-1.5l0,0
		C105.2,31.9,107.8,31.9,107.8,31.9z M108,26.2L108,26.2c-0.3,0.2-0.6,0.3-1,0.3c-1.2,0-1.9-0.9-1.9-2.5c0-0.8,0.1-1.8,0.9-2.3
		c0.3-0.2,0.7-0.3,1-0.3c1.2,0,1.9,0.9,1.9,2.5C108.9,24.7,108.8,25.7,108,26.2z"/>
	<path class="st1" d="M15.1,6.8c0-0.1,0.4-1.1,0.4-1.1c0,0,0-0.1,0-0.1c0,0,0,0,0-0.1c0,0-0.1,0-0.1,0h0c0,0-1.2,0-1.2,0
		c0,0,0.7,0.9,0.7,0.9S15,6.7,15.1,6.8z M16.3,8.6c0-0.2-0.3-0.5-0.5-0.6c-0.1-0.1-0.3-0.2-0.4-0.3l-0.1-0.1
		c-0.2-0.2-1.6-2.1-1.9-2.6c-0.1-0.1-0.2-0.2-0.3-0.2s-0.2,0-0.3,0.2c-0.3,0.5-1.7,2.4-1.9,2.6l-0.1,0.1c-0.1,0.1-0.2,0.2-0.4,0.3
		C10.2,8.2,10,8.4,10,8.6c0,0,0,0.1,0,0.1c0,0.1,0,0.2,0,0.2c0,0,0.1,0.1,0.1,0.2c0,0,0.1,0.1,0.1,0.1C10.3,9.1,11.4,8,11.5,8l0,0
		l0,0c0,0.1-1.1,1.5-1.2,1.6c0,0,0.1,0.3,0.2,0.5c0.1,0.1,0.2,0.3,0.3,0.3c0-0.1,1.1-1.8,1.2-1.7l0,0c0,0,0,0,0,0
		c0,0.1-0.5,1.1-0.9,1.9c0,0,0,0,0,0.1c0,0,0.4,0.3,0.5,0.4c0.1,0.1,0.3,0.1,0.4,0.1C12,11,12.6,9,12.7,9l0,0l0,0c0,0,0,0.1,0,0.1
		c0,0.5-0.2,2.1-0.2,2.2c0,0,0.5,0.1,0.6,0.1c0.1,0,0.6-0.1,0.6-0.1c0-0.1-0.2-1.7-0.2-2.2c0-0.1,0-0.1,0-0.1l0,0h0
		c0.1,0,0.6,2,0.7,2.1c0.1,0,0.3-0.1,0.4-0.1c0.1-0.1,0.5-0.4,0.5-0.4c0,0,0,0,0,0c-0.4-0.8-0.9-1.8-0.9-1.9c0,0,0,0,0,0l0,0
		c0.1,0,1.1,1.6,1.2,1.7c0,0,0.2-0.2,0.3-0.3c0.1-0.1,0.2-0.4,0.2-0.5c-0.1-0.1-1.2-1.4-1.2-1.6l0,0l0,0c0.1,0,1.2,1.1,1.3,1.2
		c0,0,0.1-0.1,0.1-0.1c0-0.1,0.1-0.1,0.1-0.2C16.2,8.8,16.3,8.8,16.3,8.6C16.3,8.6,16.3,8.6,16.3,8.6z M11.2,6.8
		c0,0,0.2-0.3,0.2-0.3s0.7-0.9,0.7-0.9c0,0-1.2,0-1.2,0h0c-0.1,0-0.1,0-0.1,0c0,0,0,0,0,0.1c0,0.1,0,0.1,0,0.1
		C10.8,5.7,11.1,6.7,11.2,6.8z"/>
	<path class="st1" d="M22.6,6.8c0-0.1,0.4-1.1,0.4-1.1c0,0,0-0.1,0-0.1c0,0,0,0,0-0.1c0,0-0.1,0-0.1,0h0c0,0-1.2,0-1.2,0
		c0,0,0.7,0.9,0.7,0.9S22.6,6.8,22.6,6.8z M23.8,8.7c0-0.2-0.3-0.5-0.5-0.6c-0.1-0.1-0.3-0.2-0.4-0.3l-0.1-0.1
		c-0.2-0.2-1.6-2.1-1.9-2.6c-0.1-0.1-0.2-0.2-0.3-0.2c-0.1,0-0.2,0-0.3,0.2c-0.3,0.5-1.7,2.4-1.9,2.6l-0.1,0.1
		c-0.1,0.1-0.2,0.2-0.4,0.3c-0.3,0.2-0.5,0.4-0.5,0.6c0,0,0,0.1,0,0.1c0,0.1,0,0.2,0,0.2c0,0,0.1,0.1,0.1,0.2c0,0,0.1,0.1,0.1,0.1
		c0.1-0.1,1.2-1.2,1.3-1.2l0,0l0,0c0,0.1-1.1,1.5-1.2,1.6c0,0,0.1,0.3,0.2,0.5c0.1,0.1,0.2,0.3,0.3,0.3c0-0.1,1.1-1.7,1.2-1.7l0,0
		c0,0,0,0,0,0c0,0.1-0.5,1.1-0.9,1.9c0,0,0,0,0,0.1c0,0,0.4,0.3,0.5,0.4c0.1,0.1,0.3,0.1,0.4,0.1c0-0.1,0.6-2.1,0.7-2.1l0,0l0,0
		c0,0,0,0.1,0,0.1c0,0.5-0.2,2.1-0.2,2.2c0,0,0.1,0,0.1,0l0.2,0l0.1,0c0.1,0,0.2,0,0.2,0.1c0.1,0,0.2,0,0.2-0.1l0.1,0l0.2,0
		c0,0,0.1,0,0.1,0c0-0.1-0.2-1.7-0.2-2.2c0-0.1,0-0.1,0-0.1l0,0h0c0.1,0,0.6,2,0.7,2.1c0.1,0,0.3-0.1,0.4-0.1
		c0.1-0.1,0.5-0.4,0.5-0.4c0,0,0,0,0,0c-0.4-0.8-0.9-1.8-0.9-1.9c0,0,0,0,0,0l0,0c0.1,0,1.1,1.6,1.2,1.7c0,0,0.2-0.2,0.3-0.3
		c0.1-0.1,0.2-0.4,0.2-0.5c-0.1-0.1-1.2-1.4-1.2-1.6l0,0l0,0c0.1,0,1.2,1.1,1.3,1.2c0,0,0.1-0.1,0.1-0.1c0-0.1,0.1-0.1,0.1-0.2
		C23.8,8.9,23.8,8.8,23.8,8.7C23.8,8.7,23.8,8.7,23.8,8.7z M18.7,6.8c0,0,0.2-0.3,0.2-0.3s0.7-0.9,0.7-0.9c0,0-1.2,0-1.2,0h0
		c-0.1,0-0.1,0-0.1,0c0,0,0,0,0,0.1c0,0.1,0,0.1,0,0.1C18.3,5.8,18.7,6.7,18.7,6.8z"/>
	<path class="st1" d="M7.4,6.8c0-0.1,0.4-1.1,0.4-1.1c0,0,0-0.1,0-0.1c0,0,0,0,0-0.1c0,0-0.1,0-0.1,0h0c0,0-1.2,0-1.2,0
		c0,0,0.7,0.9,0.7,0.9S7.4,6.8,7.4,6.8z M8.6,8.7c0-0.2-0.3-0.5-0.5-0.6C8,7.9,7.8,7.8,7.8,7.7L7.7,7.7C7.5,7.5,6,5.6,5.8,5.1
		C5.7,4.9,5.6,4.9,5.5,4.9s-0.2,0-0.3,0.2C5,5.6,3.5,7.5,3.3,7.7L3.3,7.7C3.2,7.8,3,7.9,2.9,8C2.6,8.3,2.4,8.5,2.4,8.7
		c0,0,0,0.1,0,0.1c0,0.1,0,0.2,0,0.2c0,0,0.1,0.1,0.1,0.2c0,0,0.1,0.1,0.1,0.1c0.1-0.1,1.2-1.2,1.3-1.2l0,0l0,0
		c0,0.2-1.1,1.5-1.2,1.6c0,0,0.1,0.3,0.2,0.5c0.1,0.1,0.2,0.3,0.3,0.3c0-0.1,1.1-1.7,1.2-1.7l0,0c0,0,0,0,0,0c0,0.1-0.5,1.1-0.9,1.9
		c0,0,0,0,0,0.1c0,0,0.4,0.3,0.5,0.4c0.1,0.1,0.3,0.1,0.4,0.1c0-0.1,0.6-2.1,0.7-2.1l0,0l0,0c0,0,0,0.1,0,0.1c0,0.5-0.2,2.1-0.2,2.2
		c0,0,0.5,0.1,0.6,0.1c0.1,0,0.6-0.1,0.6-0.1c0-0.1-0.2-1.7-0.2-2.2c0-0.1,0-0.1,0-0.1l0,0h0c0.1,0,0.7,2,0.7,2.1
		c0.1,0,0.3-0.1,0.4-0.1c0.1-0.1,0.5-0.4,0.5-0.4c0,0-0.9-1.8-0.9-1.9c0,0,0,0,0,0l0,0c0.1,0,1.1,1.6,1.2,1.7c0,0,0.2-0.2,0.3-0.3
		C8.2,10,8.3,9.7,8.3,9.7C8.2,9.6,7.1,8.3,7.1,8.1l0,0l0,0c0.1,0,1.2,1.1,1.3,1.2c0,0,0.1-0.1,0.1-0.1C8.5,9.1,8.6,9,8.6,9
		C8.6,8.9,8.6,8.8,8.6,8.7C8.6,8.7,8.6,8.7,8.6,8.7z M3.6,6.8c0,0,0.2-0.3,0.2-0.3s0.7-0.9,0.7-0.9c0,0-1.2,0-1.2,0h0
		c-0.1,0-0.1,0-0.1,0c0,0,0,0,0,0.1c0,0.1,0,0.1,0,0.1C3.2,5.8,3.5,6.7,3.6,6.8z"/>
	<polygon class="st1" points="15,19.6 15,19.6 15,19.6 	"/>
	<ellipse class="st1" cx="13.1" cy="22.2" rx="0.6" ry="0.6"/>
</g>
</svg>
